<svg width="17" height="18" viewBox="0 0 17 18" fill="none" xmlns="http://www.w3.org/2000/svg">
<g id="codicon:github-inverted" clip-path="url(#clip0_68_307)">
<path id="Vector" fill-rule="evenodd" clip-rule="evenodd" d="M8.4745 0.5C6.22701 0.500282 4.07165 1.39322 2.48243 2.98243C0.893219 4.57165 0.000281729 6.72701 0 8.9745C0 12.7166 2.44375 15.8882 5.77044 17.0325C6.18694 17.0846 6.34206 16.8243 6.34206 16.616V15.1604C4.0035 15.681 3.48394 14.0171 3.48394 14.0171C3.1195 13.029 2.54787 12.7687 2.54787 12.7687C1.768 12.2491 2.59888 12.2491 2.59888 12.2491C3.43081 12.3012 3.89937 13.1331 3.89937 13.1331C4.67925 14.4326 5.87456 14.0681 6.34312 13.8609C6.39412 13.2893 6.65444 12.9259 6.86269 12.7177C4.99056 12.5094 3.01538 11.7816 3.01538 8.50594C3.01538 7.57094 3.32669 6.84206 3.89937 6.21838C3.84625 6.06219 3.53494 5.17925 4.0035 4.03494C4.0035 4.03494 4.73131 3.82669 6.34206 4.91894C7.01781 4.71069 7.74669 4.65863 8.4745 4.65863C9.20231 4.65863 9.93013 4.76275 10.6059 4.91894C12.2177 3.82775 12.9455 4.03494 12.9455 4.03494C13.413 5.17925 13.1006 6.06219 13.0486 6.27044C13.6211 6.89421 13.9369 7.71129 13.9326 8.558C13.9326 11.8337 11.9563 12.5094 10.0863 12.7177C10.3976 12.9769 10.6579 13.4965 10.6579 14.2764V16.616C10.6579 16.8243 10.8131 17.0835 11.2296 17.0325C12.9147 16.4638 14.3785 15.3798 15.414 13.9339C16.4494 12.4879 17.0043 10.753 17 8.9745C16.9479 4.29525 13.1537 0.5 8.4745 0.5Z" fill="#E1D9C7"/>
</g>
<defs>
<clipPath id="clip0_68_307">
<rect width="17" height="17" fill="white" transform="translate(0 0.5)"/>
</clipPath>
</defs>
</svg>
