<svg width="20" height="20" viewBox="0 0 20 20" fill="none" xmlns="http://www.w3.org/2000/svg">
<g id="linked">
<path id="Vector" d="M16.8169 1.00012L3.1831 1.00012C3.02984 0.997871 2.87767 1.02753 2.73526 1.0874C2.59286 1.14727 2.46302 1.23618 2.35316 1.34905C2.24329 1.46192 2.15556 1.59654 2.09496 1.74523C2.03437 1.89391 2.0021 2.05375 2 2.2156V16.7844C2.0021 16.9463 2.03437 17.1061 2.09496 17.2548C2.15556 17.4035 2.24329 17.5381 2.35316 17.6509C2.46302 17.7638 2.59286 17.8527 2.73526 17.9126C2.87767 17.9725 3.02984 18.0021 3.1831 17.9999H16.8169C16.9702 18.0021 17.1223 17.9725 17.2647 17.9126C17.4071 17.8527 17.537 17.7638 17.6468 17.6509C17.7567 17.5381 17.8444 17.4035 17.905 17.2548C17.9656 17.1061 17.9979 16.9463 18 16.7844V2.2156C17.9979 2.05375 17.9656 1.89391 17.905 1.74523C17.8444 1.59654 17.7567 1.46192 17.6468 1.34905C17.537 1.23618 17.4071 1.14727 17.2647 1.0874C17.1223 1.02753 16.9702 0.997871 16.8169 1.00012ZM6.85312 15.2289H4.43863V7.57903H6.85312V15.2289ZM5.64588 6.50804C5.31289 6.50804 4.99354 6.36834 4.75808 6.11967C4.52262 5.871 4.39034 5.53373 4.39034 5.18206C4.39034 4.83039 4.52262 4.49312 4.75808 4.24445C4.99354 3.99578 5.31289 3.85608 5.64588 3.85608C5.82269 3.8349 6.00175 3.8534 6.17133 3.91038C6.3409 3.96735 6.49717 4.06151 6.6299 4.18669C6.76264 4.31187 6.86883 4.46525 6.94155 4.63678C7.01426 4.80831 7.05185 4.99412 7.05185 5.18206C7.05185 5.37 7.01426 5.55581 6.94155 5.72734C6.86883 5.89887 6.76264 6.05225 6.6299 6.17743C6.49717 6.30261 6.3409 6.39677 6.17133 6.45374C6.00175 6.51072 5.82269 6.52922 5.64588 6.50804ZM15.5614 15.2289H13.1469V11.1235C13.1469 10.095 12.8008 9.4235 11.9235 9.4235C11.652 9.4256 11.3877 9.51554 11.1661 9.68119C10.9445 9.84685 10.7762 10.0803 10.6841 10.35C10.6211 10.5498 10.5938 10.7602 10.6036 10.9705V15.2204H8.18913V7.57053H10.6036V8.65001C10.823 8.24806 11.142 7.91691 11.5263 7.69225C11.9106 7.46758 12.3457 7.3579 12.7847 7.37503C14.3944 7.37503 15.5614 8.47152 15.5614 10.826V15.2289Z" fill="#E1D9C7"/>
</g>
</svg>
